<?xml version="1.0" encoding="UTF-8" standalone="no"?>
<!-- Created with Inkscape (http://www.inkscape.org/) -->

<svg
   xmlns:dc="http://purl.org/dc/elements/1.1/"
   xmlns:cc="http://creativecommons.org/ns#"
   xmlns:rdf="http://www.w3.org/1999/02/22-rdf-syntax-ns#"
   xmlns:svg="http://www.w3.org/2000/svg"
   xmlns="http://www.w3.org/2000/svg"
   xmlns:sodipodi="http://sodipodi.sourceforge.net/DTD/sodipodi-0.dtd"
   xmlns:inkscape="http://www.inkscape.org/namespaces/inkscape"
   width="59.39772mm"
   height="59.39772mm"
   viewBox="0 0 210.46436 210.46436"
   id="svg14036"
   version="1.1"
   inkscape:version="0.91 r13725"
   inkscape:export-filename="/home/mad/Pictures/20180710-data-notebooks-logo-2.png"
   inkscape:export-xdpi="90.093803"
   inkscape:export-ydpi="90.093803"
   sodipodi:docname="personal-data-notebooks.svg">
  <defs
     id="defs14038" />
  <sodipodi:namedview
     id="base"
     pagecolor="#ffffff"
     bordercolor="#666666"
     borderopacity="1.0"
     inkscape:pageopacity="0.0"
     inkscape:pageshadow="2"
     inkscape:zoom="22.4"
     inkscape:cx="129.28197"
     inkscape:cy="172.88383"
     inkscape:document-units="px"
     inkscape:current-layer="layer1"
     showgrid="false"
     fit-margin-top="0"
     fit-margin-left="0"
     fit-margin-right="0"
     fit-margin-bottom="0"
     inkscape:window-width="3070"
     inkscape:window-height="1752"
     inkscape:window-x="130"
     inkscape:window-y="48"
     inkscape:window-maximized="1"
     inkscape:snap-nodes="true" />
  <metadata
     id="metadata14041">
    <rdf:RDF>
      <cc:Work
         rdf:about="">
        <dc:format>image/svg+xml</dc:format>
        <dc:type
           rdf:resource="http://purl.org/dc/dcmitype/StillImage" />
        <dc:title></dc:title>
      </cc:Work>
    </rdf:RDF>
  </metadata>
  <g
     inkscape:label="Layer 1"
     inkscape:groupmode="layer"
     id="layer1"
     transform="translate(-9.5999386,-835.70144)">
    <ellipse
       style="fill:#ffffff;fill-opacity:1;stroke:none;stroke-width:0.10038435;stroke-miterlimit:4;stroke-dasharray:none;stroke-opacity:1"
       id="path18561"
       cx="114.31091"
       cy="941.1059"
       rx="105.0891"
       ry="105.24648" />
    <path
       inkscape:connector-curvature="0"
       style="fill:#ffceb9;fill-opacity:1;stroke:none;stroke-width:10;stroke-miterlimit:4;stroke-dasharray:none;stroke-opacity:0.11764706"
       d="m 185.76256,864.54279 0,41.8496 -5,0 0,-22 -5,0 0,27 -5,0 0,-16 -5,0 0,-15 -5,0 0,30 -5,0 0,-10 -5,0 0,30 -5,0 0,-50 -5,0 0,45 -5,0 0,-15 -5,0 0,40 -5,0 0,-22 -5,0 0,12 -5,0 0,-55 -5,0 0,45 -5,0 0,-20 -4.99999,0 0,65 -5.000008,0 0,-45 -5,0 0,-15 -5,0 0,30 -5,0 0,-10 -5,0 0,30 -5,0 0,5 -5,0 0,-15 -5,0 0,30 -5,0 0,-10 -5,0 0,30.00001 -5,0 0,-20.00001 -5,0 0,-15 -5,0 0,30.00001 -5,0 0,-10.00001 -5,0 0,7.1387 a 105.32438,104.35104 0 0 0 88.533198,47.83791 105.32438,104.35104 0 0 0 6.4668,-0.2266 l 0,-31.75 5,0 0,31.2325 a 105.32438,104.35104 0 0 0 93.85742,-103.60551 105.32438,104.35104 0 0 0 -19.75976,-60.627 l -4.09766,0 0,10 -5,0 0,-21.0468 a 105.32438,104.35104 0 0 0 -5,-4.8028 z"
       id="rect8156-3-6-7-5-3-5-8-2-7-6-2" />
    <path
       inkscape:connector-curvature="0"
       style="fill:#ff9161;fill-opacity:1;stroke:none;stroke-width:10;stroke-miterlimit:4;stroke-dasharray:none;stroke-opacity:0.11764706"
       d="m 209.95397,970.66199 0,5 -5,0 0,2 -5,0 0,-4 -5,0 0,-2 -5,0 0,9 -5,0 0,-5 -5,0 0,4 -5,0 0,11 -5,0 0,-6 -5,0 0,-11 -5,0 0,26 -5,0 0,-10 -5,0 0,14.00001 -5,0 0,-24.00001 -5,0 0,13 -5,0 0,-1 -5,0 0,-10 -5,0 0,22.00001 -5,0 0,-10.00001 -5,0 0,-19 -5,0 0,17 -4.99999,0 0,8 -5.000004,0 0,-3 -5.000004,0 0,-13 -5,0 0,21.00001 -5,0 0,30 -5,0 0,-44.00001 -5,0 0,4 -5,0 0,-9 -5,0 0,9 -5,0 0,34.00001 -2.55079,0 a 105.32438,104.35104 0 0 0 56.968748,16.707 105.32438,104.35104 0 0 0 100.67188,-73.70701 l -0.0898,0 0,-1 -5,0 z"
       id="rect8156-3-6-7-5-3-5-6-2-1-26-5" />
    <path
       style="font-style:normal;font-variant:normal;font-weight:normal;font-stretch:normal;font-size:40px;line-height:125%;font-family:'PT Sans';-inkscape-font-specification:'PT Sans';letter-spacing:0px;word-spacing:0px;fill:#ffffff;fill-opacity:1;stroke:none;stroke-width:1px;stroke-linecap:butt;stroke-linejoin:miter;stroke-opacity:1"
       d="m 136.1789,906.93221 c -2.6834,-0.55027 -5.95575,1.02546 -4.95898,4.22266 -0.0384,3.08868 0.90722,7.01326 -2.24609,3.66016 -4.71521,-3.2735 -11.3362,-0.0781 -15.01368,1.8789 -2.67889,-3.6762 -7.96763,-3.25473 -11.56445,-2.8789 -2.921853,-1.22771 -7.264542,-0.54249 -8.039062,3.04297 -4.307006,-4.48855 -11.783749,-4.09001 -16.267578,-0.78125 -4.319499,-3.84175 -10.728512,-2.07939 -15.289063,-2.53516 -3.572121,1.53147 -8.474602,-2.06645 -10.914062,2.17773 -0.942965,1.49518 -3.368857,-2.13689 -5.322266,-1.86132 -4.199618,-1.14483 -9.236714,0.25668 -11.849609,3.80273 -2.892287,-4.07053 -8.81045,-4.55572 -12.84375,-3.80273 -3.98482,-2.05286 -9.220647,0.72149 -8.572266,5.5 0.998782,6.93438 -0.571691,13.93444 0.439453,20.80664 1.304352,5.24726 11.358911,4.06312 9.869141,-1.79493 -0.336247,-2.25113 3.885858,-0.13948 5.564453,-1.46484 2.360584,-0.15743 4.448962,-3.3797 5.986328,-3.05273 4.254467,4.70145 11.975885,3.98266 16.623047,1.29687 2.314252,3.77267 8.205368,2.28632 9.792969,-0.73633 4.473162,3.94085 11.893193,3.94682 16.279296,-0.041 4.433846,4.13746 11.917105,3.81086 16.402344,-0.082 2.188571,5.10966 10.988005,3.58552 10.263675,-2.26367 -0.29382,-2.70627 -1.77936,-7.31981 1.34765,-8.63086 2.4354,3.8814 -1.59562,10.54351 1.75391,13.74804 2.69389,1.67352 6.519,0.71786 8.03906,-1.79101 2.94914,2.59647 7.16387,2.00013 10.54493,1.83984 3.11746,1.55075 5.9569,-1.03003 9.07031,0.55859 5.44063,0.76502 6.8879,-5.83584 6.02539,-9.97656 -1.07035,-6.03254 1.16718,-12.24614 -0.41992,-18.15625 -0.76944,-1.83499 -2.76635,-2.82826 -4.70118,-2.68555 z m 26.25391,0.0684 c -3.74557,0.1086 -2.51497,4.58731 -2.60156,6.6875 -10.0237,-2.69719 -17.9981,10.58579 -12.00977,18.64063 2.93537,4.86477 9.39037,5.81697 14.29297,4.62891 2.45165,1.58378 6.01369,0.52789 7.02149,-2.18555 3.11177,3.60961 7.96314,2.52652 12.0039,2.34961 2.67542,0.70217 7.17253,0.40985 6.875,-1.79688 3.1473,2.76817 7.89842,2.13753 11.39649,0.72461 3.87146,2.56914 8.38473,0.2122 12.38281,1.74805 6.38752,-0.84361 4.75999,-8.92725 4.84766,-13.42578 1.03545,-7.90781 -8.29614,-13.50955 -15.11133,-9.95117 -3.57009,3.24744 -5.57885,-2.71434 -8.97852,-3.53516 -2.61752,-1.80761 -7.69812,-1.28241 -7.05273,2.78516 -0.72,4.12043 -3.56819,-0.52989 -6.11719,-0.0312 -3.06734,-0.94178 -7.55165,1.562 -9.25586,1.38476 0.96681,-4.10256 -1.86492,-8.96204 -6.49609,-7.98437 -0.39729,-0.0298 -0.79851,-0.0693 -1.19727,-0.0391 z m -4.41406,16.21485 c 3.93029,0.31595 0.30398,7.39992 -1.90625,3.40039 -0.55821,-1.31272 0.12791,-3.70219 1.90625,-3.40039 z m -132.439456,0.0312 c 4.43827,0.79809 -1.041152,7.78217 -2.060547,2.51172 -0.120295,-1.1887 0.616368,-2.83121 2.060547,-2.51172 z m 60.611328,0.0273 c 3.900383,0.25299 0.277988,7.29854 -1.865234,3.31641 -0.542803,-1.28175 0.07685,-3.69782 1.865234,-3.31641 z m 110.322268,0.0957 c 1.40291,-0.34547 -1.98701,4.55494 -1.21094,0.95899 -0.1381,-0.83362 0.50481,-1.07023 1.21094,-0.95899 z m -134.976565,1.62891 c 1.77196,1.40291 -1.657443,4.76635 -0.304687,0.77539 0.08762,0.17002 0.116525,-1.53382 0.304687,-0.77539 z M 165.76094,944.0767 c -4.9436,0.18792 -5.98893,6.02499 -5.1211,9.875 -4.83215,-4.9119 -13.61331,-3.61025 -17.5957,0.7539 -4.70771,-5.40621 -13.86955,-4.61219 -18.62305,-0.0801 -2.38796,-2.91343 -6.64461,-3.90052 -9.94726,-3.89843 0.57546,-5.91969 -8.55507,-9.50093 -11.04688,-3.4375 -1.37972,1.45022 1.21432,7.79809 -1.88281,5.08007 -4.235756,-2.82439 -10.148359,-1.05868 -13.708987,0.46094 -3.193554,-3.57626 -9.736191,-8.74419 -13.326172,-3.02344 -1.05883,1.66578 -0.929037,4.61719 -3.195312,2.25 -4.923851,-2.33536 -11.262343,-1.10841 -15.064453,2.75977 -2.828979,-4.21977 -8.494443,-4.29468 -12.751953,-3.67969 -8.574357,-3.44659 -9.130749,8.16736 -8.712891,13.5625 -2.315851,5.23207 3.997557,13.49771 9.3125,9.31641 3.836251,-3.23027 0.05764,-9.1998 2.802735,-12.45508 2.337162,4.07015 -2.924662,12.0801 3.179687,13.71875 3.066419,1.57679 6.295633,-1.32911 7.587891,-2.9707 5.102282,4.11876 13.380739,2.98994 17.535156,-1.69141 2.288843,5.44508 9.635526,5.06687 13.667969,2.34571 4.52584,3.13899 11.061622,2.13725 15.13086,-0.73047 0.25527,5.22264 6.86515,1.08932 10.24609,2.57031 3.98097,1.30224 8.02245,-2.1148 10.62305,-3.50195 4.77077,4.92086 13.7057,4.76029 18.24609,-0.38868 4.30274,4.96698 12.58813,5.1492 17.54297,1.05664 -0.0834,4.8102 8.77916,5.25449 9.88672,0.22461 0.53274,-1.85663 1.96917,2.61837 3.90039,2.33985 4.10624,0.98137 8.28941,-0.25485 12.42188,0.48828 6.90783,-0.0174 12.30825,-9.05927 6.76953,-14.30078 3.98377,-3.22233 0.95556,-8.90942 -3.54492,-9.35547 -4.40305,-0.91604 -8.90036,0.15645 -13.28321,-0.9082 -1.93795,-0.18616 -4.55184,2.27719 -5.21679,2.30078 1.47337,-4.05868 -1.21225,-8.97256 -5.83203,-8.68164 z M 95.8957,959.48881 c -0.31959,2.3264 -0.80599,-2.15543 0,0 z m 19.17383,1.71875 c 3.79424,0.53208 -1.25428,5.98676 -1.21094,1.41601 0.0702,-0.62905 0.45537,-1.47387 1.21094,-1.41601 z m -49.42383,0.0742 c 3.375293,0.69679 -1.144334,5.83999 -1.419922,1.65625 1.14e-4,-0.76811 0.454245,-1.90121 1.419922,-1.65625 z m 68.26172,0 c 3.37529,0.69679 -1.14433,5.83999 -1.41992,1.65625 1.1e-4,-0.76811 0.45424,-1.90121 1.41992,-1.65625 z m 18.63281,0 c 3.3753,0.69679 -1.14433,5.83999 -1.41992,1.65625 1.1e-4,-0.76811 0.45425,-1.90121 1.41992,-1.65625 z"
       id="text8776-8-0-6"
       inkscape:connector-curvature="0" />
    <text
       xml:space="preserve"
       style="font-style:normal;font-variant:normal;font-weight:normal;font-stretch:normal;font-size:40px;line-height:125%;font-family:'PT Sans';-inkscape-font-specification:'PT Sans';letter-spacing:0px;word-spacing:0px;fill:#4d4d4d;fill-opacity:1;stroke:none;stroke-width:1px;stroke-linecap:butt;stroke-linejoin:miter;stroke-opacity:1"
       x="114.49313"
       y="933.44385"
       id="text8776-8-0"
       sodipodi:linespacing="125%"><tspan
         sodipodi:role="line"
         id="tspan8778-1-2"
         x="114.49313"
         y="933.44385"
         style="font-style:normal;font-variant:normal;font-weight:300;font-stretch:normal;font-size:30px;font-family:Montserrat;-inkscape-font-specification:'Montserrat Light';text-align:center;text-anchor:middle;fill:#4d4d4d;fill-opacity:1">personal data</tspan><tspan
         sodipodi:role="line"
         x="114.49313"
         y="970.94385"
         id="tspan8780-9-0"
         style="font-style:normal;font-variant:normal;font-weight:normal;font-stretch:normal;font-size:30px;font-family:Montserrat;-inkscape-font-specification:Montserrat;text-align:center;text-anchor:middle;fill:#4d4d4d;fill-opacity:1">notebooks</tspan></text>
    <text
       xml:space="preserve"
       style="font-style:normal;font-weight:normal;font-size:40px;line-height:125%;font-family:sans-serif;letter-spacing:0px;word-spacing:0px;fill:#000000;fill-opacity:1;stroke:none;stroke-width:1px;stroke-linecap:butt;stroke-linejoin:miter;stroke-opacity:1"
       x="6.1710601"
       y="974.29529"
       id="text18585"
       sodipodi:linespacing="125%"><tspan
         sodipodi:role="line"
         id="tspan18587"
         x="6.1710601"
         y="974.29529" /></text>
    <path
       style="opacity:1;fill:#4bc0c7;fill-opacity:1;stroke:none;stroke-width:0.5;stroke-miterlimit:4;stroke-dasharray:none;stroke-opacity:1"
       d="m 114.36216,835.89955 a 105.39111,105 0 0 0 -96.206644,62.45117 l 35.257799,0 a 74.024706,73.749992 0 0 1 60.741045,-31.64257 74.024706,73.749992 0 0 1 60.66654,31.64257 l 35.80672,0 a 105.39111,105 0 0 0 -96.26546,-62.45117 z m -96.13999,147.8086 a 105.39111,105 0 0 0 96.13999,62.19145 105.39111,105 0 0 0 96.08903,-62.19145 l -36.42816,0 a 74.024706,73.749992 0 0 1 -59.86867,30.50005 74.024706,73.749992 0 0 1 -59.847102,-30.50005 l -36.085089,0 z"
       id="path25349"
       inkscape:connector-curvature="0" />
  </g>
</svg>
